# xmcd
#
# Track frame offsets: 
#        150
#        14647
#        26720
#        46603
#        58195
#        79607
#        90637
#        99599
#        110989
#        119771
#        131168
#        152286
#
# Disc length: 2215 seconds
#
# Revision: 0
# Processed by: cddbd v1.5PL3 Copyright (c) Steve Scherf et al.
# Submitted via: ExactAudioCopy v0.95a4
#
DISCID=9e08a50c
DTITLE=Rick Dinsmore - Stories
DYEAR=2004
DGENRE=Americana
TTITLE0=Hard by the Highway
TTITLE1=I Never Picked Cotton
TTITLE2=Stories
TTITLE3=Looking for an Angel
TTITLE4=Judas My Brother
TTITLE5=Nowhere Fast
TTITLE6=Turn in the Barrel
TTITLE7=Things I Don't Do
TTITLE8=What's the Story
TTITLE9=This Crazy Life and Times
TTITLE10=Piece of Wood and Steel
TTITLE11=Spittin' in the Wind
EXTD=
EXTT0=
EXTT1=
EXTT2=
EXTT3=
EXTT4=
EXTT5=
EXTT6=
EXTT7=
EXTT8=
EXTT9=
EXTT10=
EXTT11=
PLAYORDER=
